<svg width="24" height="24" viewBox="0 0 24 24" fill="none" xmlns="http://www.w3.org/2000/svg">
<path fill-rule="evenodd" clip-rule="evenodd" d="M16.5292 9.46991C16.6696 9.61054 16.7485 9.80116 16.7485 9.99991C16.7485 10.1987 16.6696 10.3893 16.5292 10.5299L11.9992 15.0599L7.46918 10.5299C7.39549 10.4612 7.33639 10.3784 7.2954 10.2864C7.2544 10.1944 7.23236 10.0951 7.23059 9.99443C7.22881 9.89373 7.24733 9.7937 7.28505 9.70031C7.32278 9.60692 7.37892 9.52209 7.45014 9.45087C7.52136 9.37965 7.60619 9.32351 7.69958 9.28579C7.79297 9.24807 7.893 9.22954 7.9937 9.23132C8.0944 9.23309 8.19372 9.25514 8.28571 9.29613C8.37771 9.33712 8.46051 9.39622 8.52918 9.46991L11.9992 12.9399L15.4692 9.46991C15.6098 9.32946 15.8004 9.25057 15.9992 9.25057C16.1979 9.25057 16.3886 9.32946 16.5292 9.46991Z" fill="#B1C1E6"/>
</svg>
