<svg width="24" height="24" viewBox="0 0 24 24" fill="none" xmlns="http://www.w3.org/2000/svg">
<path fill-rule="evenodd" clip-rule="evenodd" d="M9.5 4C6.232 4 3.5 6.419 3.5 9.5C3.5 10.722 3.935 11.847 4.662 12.755L4.018 15.118C3.99507 15.208 3.99746 15.3026 4.0249 15.3913C4.05233 15.48 4.10376 15.5595 4.17348 15.6208C4.24321 15.6822 4.32853 15.723 4.42003 15.739C4.51153 15.7549 4.60565 15.7452 4.692 15.711L7.492 14.545C7.6144 14.4939 7.7115 14.3964 7.76195 14.2737C7.8124 14.1511 7.81205 14.0134 7.761 13.891C7.70995 13.7686 7.61236 13.6715 7.48971 13.6211C7.36706 13.5706 7.2294 13.5709 7.107 13.622L5.251 14.395L5.696 12.765C5.71784 12.6849 5.71941 12.6007 5.70055 12.5198C5.6817 12.439 5.64302 12.3641 5.588 12.302C4.903 11.528 4.5 10.555 4.5 9.5C4.5 7.059 6.693 5 9.5 5C11.81 5 13.71 6.398 14.305 8.253C11.125 8.347 8.5 10.73 8.5 13.75C8.5 16.831 11.232 19.25 14.5 19.25C15.247 19.2509 15.9885 19.123 16.692 18.872L19.308 19.962C19.684 20.118 20.09 19.762 19.982 19.368L19.338 17.005C20.0866 16.085 20.4967 14.936 20.5 13.75C20.5 10.943 18.233 8.686 15.358 8.306C14.758 5.814 12.335 4 9.5 4ZM9.5 13.75C9.5 11.309 11.693 9.25 14.5 9.25C17.307 9.25 19.5 11.309 19.5 13.75C19.5 14.805 19.097 15.778 18.412 16.552C18.357 16.6141 18.3183 16.689 18.2994 16.7698C18.2806 16.8507 18.2822 16.9349 18.304 17.015L18.749 18.645L16.893 17.872C16.7725 17.8218 16.6372 17.8208 16.516 17.869C15.8738 18.1213 15.1899 18.2506 14.5 18.25C11.693 18.25 9.5 16.192 9.5 13.75Z" fill="#8AA2D9"/>
</svg>
