<svg width="20" height="20" viewBox="0 0 20 20" fill="none" xmlns="http://www.w3.org/2000/svg">
<path d="M15 5H6.875C6.70924 5 6.55027 4.93415 6.43306 4.81694C6.31585 4.69973 6.25 4.54076 6.25 4.375C6.25 4.20924 6.31585 4.05027 6.43306 3.93306C6.55027 3.81585 6.70924 3.75 6.875 3.75H15.625C15.7908 3.75 15.9497 3.81585 16.0669 3.93306C16.1842 4.05027 16.25 4.20924 16.25 4.375V13.125C16.25 13.2908 16.1842 13.4497 16.0669 13.5669C15.9497 13.6842 15.7908 13.75 15.625 13.75C15.4592 13.75 15.3003 13.6842 15.1831 13.5669C15.0658 13.4497 15 13.2908 15 13.125V5Z" fill="white"/>
<path d="M15.1817 3.93256C15.2991 3.8152 15.4582 3.74927 15.6242 3.74927C15.7902 3.74927 15.9494 3.8152 16.0667 3.93256C16.1841 4.04992 16.25 4.20909 16.25 4.37506C16.25 4.54103 16.1841 4.7002 16.0667 4.81756L5.44171 15.4426C5.32435 15.5599 5.16518 15.6258 4.99921 15.6258C4.83324 15.6258 4.67407 15.5599 4.55671 15.4426C4.43935 15.3252 4.37342 15.166 4.37342 15.0001C4.37342 14.8341 4.43935 14.6749 4.55671 14.5576L15.1817 3.93256Z" fill="white"/>
</svg>
